<?xml version="1.0" standalone="no"?>
<svg xmlns="http://www.w3.org/2000/svg" viewBox="0 0 65.16 36" width="65.16" height="36"><g fill="#489bfa" color="#489bfa" transform="translate(0 5.076923076923077) scale(0.5384616)"><svg width="52.0" height="48.0" x="0.0" y="0.0" viewBox="0 0 52 48"><path fill="currentColor" fill-rule="nonzero" d="M25.7 11.69c-7.36.16-11.83 5.78-11.96 12.72 0 .05.01.1.01.15-.01.18-.01.37.05.57.72 2.75 1.29 5.27 3.12 7.52 2.05 2.51 5.63 3.91 8.81 3.36 3.05-.52 6.38-1.96 8.74-4 2.57-2.22 3.46-5.06 3.64-8.37.37-6.69-6.06-12.09-12.41-11.95zm-.07 20.98c-5.53 1.38-7.5-4.13-8.58-8.22v-.04c.1-5.03 2.45-8.04 7.4-9.23 5.26-1.27 10.27 3.3 10.33 8.46.06 5.29-4.57 7.89-9.15 9.03zM24.18 6.71c-.27-1.51-.15-3.06-.42-4.57-.16-.89.23-1.78 1.16-2.04.81-.22 1.88.27 2.04 1.16.27 1.51.15 3.06.42 4.57.16.89-.23 1.78-1.16 2.04-.81.22-1.88-.27-2.04-1.16zm15.32 5.71c-.72.55-1.86.11-2.28-.6-.5-.85-.12-1.72.6-2.27.98-.74 1.84-1.64 2.71-2.51 1.52-1.52 3.87.83 2.35 2.35-1.07 1.08-2.17 2.11-3.38 3.03zm10.11 9.78c2.11.21 2.13 3.53 0 3.32-2.23-.21-4.42.24-6.65.28-2.14.04-2.14-3.28 0-3.32 2.23-.04 4.42-.5 6.65-.28zM40.1 35.76c.58 1.23 1.82 2.21 2.93 3.12.7.58.6 1.75 0 2.35-.68.68-1.66.58-2.35 0-1.28-1.07-2.72-2.27-3.45-3.8-.39-.81-.23-1.78.6-2.27.73-.43 1.88-.22 2.27.6zM26.69 41.7c.27 1.38.43 2.78.69 4.16.17.88-.24 1.79-1.16 2.04-.82.23-1.87-.27-2.04-1.16-.26-1.38-.42-2.78-.69-4.16-.17-.88.24-1.79 1.16-2.04.82-.23 1.87.27 2.04 1.16zm-14.35-5.56c.76-.51 1.84-.15 2.27.6.47.81.15 1.77-.6 2.27-1.07.72-2.34 1.48-3 2.59-1.09 1.84-3.97.17-2.87-1.68.98-1.65 2.64-2.74 4.2-3.78zM9.02 23.58c0 .97-.76 1.58-1.66 1.66-1.71.17-3.4.52-5.12.42-2.13-.12-2.14-3.45 0-3.32 1.72.1 3.41-.26 5.12-.42.9-.09 1.66.82 1.66 1.66zM8.05 9.92c-1.86-1.06-.19-3.93 1.68-2.86 1.46.83 2.72 2.16 4.31 2.74.85.31 1.42 1.11 1.16 2.04-.22.82-1.19 1.47-2.04 1.16-1.92-.71-3.36-2.08-5.11-3.08z"></path></svg></g><path fill="#61d1b6" fill-rule="nonzero" d="M10.13 12.46L10.13 12.46L7.03 12.38Q4.73 12.38 3.67 12.43L3.67 12.43Q3.41 13.22 2.92 14.92Q2.42 16.61 2.11 17.54Q1.80 18.48 1.01 18.48L1.01 18.48Q0.55 18.48 0.28 18.19Q0 17.90 0 17.56Q0 17.21 0.04 16.99Q0.07 16.78 0.20 16.34Q0.34 15.91 0.48 15.53L0.48 15.53Q1.18 13.46 1.49 12.50L1.49 12.50Q0.79 12.50 0.40 12.20Q0 11.90 0 11.40L0 11.40Q0 10.27 1.78 10.27L1.78 10.27L2.21 10.27Q4.51 3.84 4.86 2.92Q5.21 1.99 5.26 1.85Q5.30 1.70 5.41 1.43Q5.52 1.15 5.60 1.02Q5.69 0.89 5.81 0.70Q5.93 0.50 6.04 0.40Q6.14 0.29 6.29 0.19L6.29 0.19Q6.60 0 6.95 0Q7.30 0 7.51 0.07Q7.73 0.14 7.92 0.34Q8.11 0.53 8.24 0.74Q8.38 0.96 8.56 1.42Q8.74 1.87 8.88 2.26L8.88 2.26Q10.03 5.78 11.76 10.27L11.76 10.27L12.62 10.25Q13.25 10.25 13.64 10.58Q14.04 10.92 14.04 11.42L14.04 11.42Q14.04 12.48 12.46 12.55L12.46 12.55Q12.70 13.32 13.10 14.50L13.10 14.50Q14.04 17.04 14.04 17.44Q14.04 17.83 13.76 18.16Q13.49 18.48 13.01 18.48L13.01 18.48Q12.14 18.48 11.76 17.54L11.76 17.54Q11.35 16.37 10.13 12.46ZM4.90 8.54L4.27 10.37Q5.81 10.42 7.24 10.42Q8.66 10.42 9.53 10.37L9.53 10.37Q7.01 3.12 6.96 3.12L6.96 3.12Q6.82 3.12 4.90 8.54L4.90 8.54ZM23.64 10.97L23.64 10.97Q23.64 12.89 23.71 14.83L23.71 14.83L23.76 16.78Q23.76 18.48 22.54 18.48Q21.31 18.48 21.31 16.78L21.31 16.78L21.36 14.78Q21.43 12.79 21.43 10.94L21.43 10.94Q16.66 2.74 16.34 2.09Q16.03 1.44 16.03 1.03Q16.03 0.62 16.32 0.31Q16.61 0 17.15 0Q17.69 0 18.07 0.52Q18.46 1.03 19.86 3.77Q21.26 6.50 22.66 8.62L22.66 8.62Q23.23 7.75 24.68 5.06Q26.14 2.38 26.36 1.98Q26.59 1.58 26.69 1.40Q26.78 1.22 26.96 0.94Q27.14 0.65 27.25 0.52Q27.36 0.38 27.50 0.24L27.50 0.24Q27.74 0 28.18 0Q28.61 0 28.88 0.29Q29.16 0.58 29.16 0.98Q29.16 1.39 28.81 2.05Q28.46 2.71 27.30 4.70Q26.14 6.70 25.80 7.26Q25.46 7.82 24.85 8.89Q24.24 9.96 23.64 10.97Z" transform="translate(36, 8.76)"></path></svg>